PathFileType	3	(X/Y/Z)	results
DataRate	CameraRate	NumFrames	NumMarkers	Units	OrigDataRate	OrigDataStartFrame	OrigNumFrames
30.0	30.0	4	85	mm	30.0	65	173
Frame#	Time	head			nose			neck			shoulder_r			elbow_r			wrist_r			shoulder_l			elbow_l			wrist_l			hip_r			knee_r			ankle_r			hip_l			knee_l			ankle_l			heel_r			heel_l			mtoe_r			ltoe_r			mtoe_l			ltoe_l			asis_l			asis_r			psi_r			psi_l			mhnd_r			lhnd_r			mhnd_l			lhnd_l			l_lat_knee			r_med_wrist			l_lat_ankle			r_med_ankle			r_lat_knee			xiphoid			l_med_ankle			r_med_knee			l_med_elbow			navel			r_lat_elbow			r_lat_wrist			l_med_wrist			l_lat_elbow			l_med_knee			r_med_elbow			r_lat_ankle			l_lat_wrist			chin			T10			r_eye			l_eye			l_ear			r_ear			spinal_cord_8			spinal_cord_12			spinal_cord_27			spinal_cord_33			up_arm_r_0			up_arm_r_5			up_arm_l_0			up_arm_l_5			front_torso_11			front_torso_7			front_torso_4			front_torso_1			front_torso_10			thigh_r_2			thigh_r_3			thigh_l_1			thigh_l_5			shank_l_0			shank_l_4			shank_r_1			shank_r_2			foot_r_1			foot_r_3			foot_r_5			foot_r_6			foot_r_7			foot_l_1			foot_l_7			foot_l_0			foot_l_4			foot_l_5			foot_l_6			
		X1	Y1	Z1	X2	Y2	Z2	X3	Y3	Z3	X4	Y4	Z4	X5	Y5	Z5	X6	Y6	Z6	X7	Y7	Z7	X8	Y8	Z8	X9	Y9	Z9	X10	Y10	Z10	X11	Y11	Z11	X12	Y12	Z12	X13	Y13	Z13	X14	Y14	Z14	X15	Y15	Z15	X16	Y16	Z16	X17	Y17	Z17	X18	Y18	Z18	X19	Y19	Z19	X20	Y20	Z20	X21	Y21	Z21	X22	Y22	Z22	X23	Y23	Z23	X24	Y24	Z24	X25	Y25	Z25	X26	Y26	Z26	X27	Y27	Z27	X28	Y28	Z28	X29	Y29	Z29	X30	Y30	Z30	X31	Y31	Z31	X32	Y32	Z32	X33	Y33	Z33	X34	Y34	Z34	X35	Y35	Z35	X36	Y36	Z36	X37	Y37	Z37	X38	Y38	Z38	X39	Y39	Z39	X40	Y40	Z40	X41	Y41	Z41	X42	Y42	Z42	X43	Y43	Z43	X44	Y44	Z44	X45	Y45	Z45	X46	Y46	Z46	X47	Y47	Z47	X48	Y48	Z48	X49	Y49	Z49	X50	Y50	Z50	X51	Y51	Z51	X52	Y52	Z52	X53	Y53	Z53	X54	Y54	Z54	X55	Y55	Z55	X56	Y56	Z56	X57	Y57	Z57	X58	Y58	Z58	X59	Y59	Z59	X60	Y60	Z60	X61	Y61	Z61	X62	Y62	Z62	X63	Y63	Z63	X64	Y64	Z64	X65	Y65	Z65	X66	Y66	Z66	X67	Y67	Z67	X68	Y68	Z68	X69	Y69	Z69	X70	Y70	Z70	X71	Y71	Z71	X72	Y72	Z72	X73	Y73	Z73	X74	Y74	Z74	X75	Y75	Z75	X76	Y76	Z76	X77	Y77	Z77	X78	Y78	Z78	X79	Y79	Z79	X80	Y80	Z80	X81	Y81	Z81	X82	Y82	Z82	X83	Y83	Z83	X84	Y84	Z84	X85	Y85	Z85	
65	2.1666666666666665	-228.0130464060211	1626.2901951863173	-230.20757020957836	-195.72303193000423	1454.2110329714199	-310.3226729203839	-268.958269445246	1340.736892677141	-172.3716645943857	-69.00394653819367	1281.0522029186927	-150.69966889703156	-20.550217293114027	1022.0746638173059	-113.91128062195719	6.25074000449152	805.0534589455547	-165.9405275998393	-423.1713456182895	1313.0619582362121	-236.3031012093882	-477.3838830054421	1046.941532541235	-254.38683495720161	-450.8462587950628	814.3813933533214	-319.4739008789159	-157.02169797327346	842.4333371872214	-190.11546477079415	-157.57158427331737	468.2855507892276	-146.6321700045376	-68.91536716478842	77.54849157987964	-110.73245169343453	-331.74084645305817	857.9723752833897	-176.10210088501796	-342.50291577215273	477.1016763252636	-127.06055009799839	-391.7499061257903	83.09058033516808	-79.77460051551208	-67.15205381460935	17.715768183457353	-100.0180576376933	-404.0730365990821	17.48696100590949	-52.723466765037415	52.42128963229044	51.404124884677834	-291.39961783746236	76.85214020416842	38.083217025706716	-205.40118653649216	-376.9577199541366	22.739523323728385	-267.70447313415883	-456.77307594126756	6.8758594900836645	-221.14817605994475	-368.0469736887996	923.6172687691402	-210.62233395959723	-112.24949914531248	897.7058556264997	-227.9886084430845	-187.1123514762777	903.3998650735036	-79.61949747493247	-274.6966397792494	911.6601412751039	-78.61776205896207	29.843982993200306	736.4172257899269	-155.25810474990226	10.033827495913378	727.081480289868	-204.14004261940443	-472.69934138986724	742.8749344810172	-334.4367188420645	-420.89602446335186	735.3977488363118	-345.21889737671427	-392.1639989524108	472.94801571893623	-122.69015310571652	24.479108326058995	811.3469850875618	-145.2559798038608	-447.40006673624487	75.23360465082607	-72.44518687222521	-85.50726537163236	60.76326684522171	-142.6419033965345	-130.73414591872728	461.997203483635	-113.79095090589774	-232.87682248770193	1170.560565311	-262.8424289503548	-362.91614515255935	65.91550528298923	-93.19154828203247	-174.81762233576575	458.02535092460664	-182.87493955272265	-485.81677375834795	1055.4931310726677	-218.93845572193177	-207.0590640207522	950.7052582504513	-272.70032149085165	7.366462159125314	1030.069642489579	-142.39136765381784	-19.78102226566035	812.8959337047869	-181.2172579759488	-482.8594240338592	823.281952934821	-325.67100863106924	-476.80964012300456	1061.0940854732696	-293.31299204911437	-303.33083849009694	470.92353191088426	-156.22025744576078	-47.97093568694439	1026.8097381073721	-88.78215028512884	-25.63677937381384	70.57357855666474	-81.93413397780435	-420.6054119616088	826.3261679652485	-320.6029001286002	-209.31742959994128	1389.0377005812293	-286.3151131455319	-263.4503908129503	1183.0794177875132	-67.9518421715452	-166.59115286509189	1481.6502587452512	-300.09490663897134	-222.58297244127752	1483.1166654854565	-327.8370821762305	-305.6785123649473	1493.4046514165032	-266.4759547206372	-168.06902546945432	1487.3257071523708	-195.2606998416996	-283.5227656281646	1400.3278032994563	-125.0553322035039	-277.9139042339449	1283.0815868691973	-70.80761962977137	-230.66513443621943	1032.599886592074	-78.3166347164827	-260.4578924215983	1173.3307234520753	-80.72640730345259	-64.0904730398851	1143.625768266366	-174.4546378129132	-9.191380838683157	1135.7671612043464	-103.74869788819946	-437.94471752387057	1262.2085999756832	-269.9095376879051	-485.64087675908837	1123.3900984380416	-212.97123162977863	-167.41411610995954	984.8545717891733	-226.6695894581894	-216.74916726391533	1083.3876023199375	-291.1128438101525	-302.91804050180576	1207.8131201251026	-279.4827101065932	-290.0136361644356	1003.838695634893	-249.47987049197735	-160.3473655138674	1267.0514407865928	-266.59442327023186	-164.52967725969265	636.8944245625254	-182.29974250144286	-113.37070322907458	611.198330373788	-101.13332768705918	-294.2700663572404	583.1808591278746	-150.96438679144632	-435.4224437566383	756.4493956933649	-165.0239396226447	-449.16925070581215	186.06684961539526	-99.0633957978064	-312.33207546766096	317.93794848888723	-115.07043020556415	-74.64568307423208	314.4954844815919	-92.93858242068913	-139.5217946814564	255.23551586989635	-157.49978757232265	63.389042776794746	41.61967754890114	-264.4225050139768	74.68838621428203	41.11183454114144	-236.82803966124158	-3.662203440442144	46.42983697241001	-227.41788237602944	19.63451793172613	51.85981366011944	-194.96891916917102	41.263489088017415	37.25949778132486	-169.61716545068063	-425.65276805772294	8.99225841715634	-247.30675281277033	-451.9440672215248	34.72519693910579	-147.720932099772	-440.45722871112065	8.447102166489358	-240.9761144061321	-407.51583310903385	9.61529183544696	-254.46865477061152	-419.020524376931	22.99931486656574	-198.91160512803944	-392.4856261975171	34.33284872742032	-167.83236336990473	
66	2.2	-227.72709541441927	1625.9595592142612	-234.8144044006542	-195.4223204169418	1453.1797952596196	-313.4010919879679	-267.78157004765717	1339.7678865759797	-172.2824047259803	-75.45266069202498	1286.3646675898694	-158.92386908964258	-36.66181081817017	1024.6069957669513	-131.56136999776547	2.726104813505558	807.1348882896457	-172.5249121872709	-423.7732953869404	1313.4710135303199	-240.9032987780066	-478.03620575579504	1047.1335369902563	-255.25553751849588	-449.6753787141679	815.1537804023301	-321.63208466469774	-156.41785668684855	843.9321333018582	-193.5533441172524	-156.19203103623963	470.3706060536342	-145.28948882220988	-68.77198419150434	79.26114652361555	-110.42847733112252	-331.1199496783309	857.412511056463	-177.36461230036758	-342.2142502621666	476.85283216357954	-126.23970049714336	-392.79951155016334	82.89095719236711	-79.96721126523748	-67.35439940071046	20.01253492827979	-98.95625467900442	-405.582085956308	17.237034052164816	-53.17241093987372	44.40259707572966	44.314852385641316	-296.3881733992643	72.28455234615984	32.716692880143064	-211.19355796810532	-375.1151334867872	22.983623314968234	-267.6914180842364	-455.5893120469273	6.727301528351721	-222.4225074955943	-368.3663793234295	923.7122770577047	-209.5527764917279	-112.53338715908245	900.7227210450326	-230.19974328803255	-185.94062542473705	901.3021301551223	-80.99752096047186	-273.58153159879816	908.7092829014625	-78.88829183821034	29.265182154963	740.3338894425433	-157.86231687278485	11.765838830268821	727.8351603678989	-206.91939596917575	-470.60594748443634	743.0984593563763	-335.21732668196694	-419.36535706134987	736.8743779885351	-349.0524279800216	-391.9264868405289	472.6752135711688	-122.34345324668202	19.8422535489014	815.2633912801741	-151.53212075564485	-448.5369475864452	75.14823914358354	-73.20102411540452	-86.90133291591592	62.36630552309175	-141.43071960305198	-126.87932127990162	464.2720267884078	-114.59894534635268	-231.43134839859385	1169.518887450681	-262.5085212135554	-363.87199088496	65.66929034175278	-93.12001329863	-176.33204364036206	459.80189800571515	-179.91488668475975	-484.2728940034734	1055.7048796117049	-219.36031667131658	-205.9164608181776	949.6198921300489	-272.17873884405566	-7.837295632190905	1032.7471387367193	-159.07975348365588	-23.07660881697302	812.952748631436	-189.04484010993997	-482.2099971601889	823.2502859730589	-325.92301161316664	-479.9426184383984	1061.233225035154	-294.158424339997	-302.78164172753907	470.4924463179802	-155.02569531123396	-64.48202594588446	1029.2945604000838	-106.86618250486718	-24.291494777868657	72.17692143258458	-83.55230772874172	-419.85908612066055	827.8364842164115	-324.56445861468967	-209.97773589403695	1388.2538052784328	-289.2869978841922	-263.16828234557084	1182.1171156570535	-67.80911897471577	-166.2538915519587	1480.4387676865952	-302.80223017167083	-221.72691734752055	1482.2038616856362	-331.55097560480976	-305.81894637066694	1493.5072045658158	-271.74575453801174	-169.55902067533518	1486.711245624352	-198.04375615229657	-282.5351855411815	1399.389752928928	-125.06376040783165	-277.44936695736783	1282.1425428152183	-70.76666027608248	-230.56863640986225	1031.5822508551057	-77.95351806546991	-260.1142597681212	1172.361602702359	-80.56390298953166	-74.64536960199618	1149.8978095947452	-188.08909943843005	-21.698799974949583	1137.3449241835963	-116.57627679317706	-440.42820406990035	1262.5179662048042	-273.46263110569646	-483.97305332550866	1123.6103772148883	-213.49598624347948	-166.49581568936168	983.710725646848	-225.91262155249964	-215.27582113187538	1082.315270044	-290.66826457046534	-301.3086482555631	1206.8842645218774	-279.5794198150389	-288.9229750619903	1002.8933370061188	-249.47034355625155	-158.7215261927276	1265.889621226974	-265.8329860655687	-164.75189880852355	638.5743647566389	-182.4885119657184	-107.4997608377693	613.47222852529	-105.30307144327902	-293.80438781685524	582.7809162771526	-150.32062269415135	-434.8705262642492	755.9171756326601	-166.686157050999	-449.79663714634506	186.01974372397567	-99.68856650787752	-312.51598894848297	317.60689612475824	-114.16162248158251	-72.02192826868439	316.36781523446854	-94.204998492763	-140.1548928155258	257.11908373826765	-155.3301971093191	56.27664512622792	34.970631677540034	-269.6396377898297	68.79331450029936	34.90169971603279	-242.5709137543864	-8.851491184486568	42.98645125950217	-229.85997154357503	16.04599674219527	48.60766977213681	-198.65622042138614	38.344513878606264	34.06492034739279	-173.85747839019538	-424.07057399914123	9.011333076201355	-248.08524695735196	-452.02231238697146	34.46209480879138	-148.87984754731153	-438.97037863768526	8.397496608182863	-241.98891529519668	-405.8259818465781	9.717431865421801	-254.9602525074232	-418.25363094558634	22.95626722701857	-199.56745031440525	-392.2543349848878	34.3359850253046	-168.0554254380669	
67	2.2333333333333334	-227.83016292683809	1625.5816704154317	-238.77383259635042	-196.07021393229778	1452.652541220418	-317.2539874224194	-268.0523024370036	1338.3966541380069	-174.23026048679486	-66.61971735924422	1286.2299525424787	-149.21926070752681	-33.40215432002088	1023.0693757567784	-128.88162367182028	8.261628660131182	805.6092875925426	-167.59565808475372	-426.03914449736254	1313.4698403110533	-245.815102811736	-480.8571871118362	1047.0170308385857	-254.97938873252002	-449.2657958711443	814.973886959045	-319.65359816801947	-155.3975913914324	844.7057371774413	-197.0739115429477	-155.32809165250163	471.7873502496073	-144.06884361431042	-69.69476730702561	80.14101410377556	-110.83865866945536	-329.61747386484774	857.1807392175566	-175.7098343829378	-340.5983515478341	476.816245251293	-123.47561687125607	-392.9538732624963	82.6820836228267	-80.77745726763258	-68.5455539268335	21.332569074732202	-98.61021246927042	-405.9378116788549	16.886041665379427	-54.51340529494518	36.51011825092044	38.269559139330504	-300.44191348679817	67.25159299037276	30.557526437611198	-215.7924627234793	-376.1413747141224	24.142268804796405	-269.0808362322763	-456.51221538921914	7.756964317168958	-223.67504976328374	-367.9743364449358	923.973881279149	-205.48332382722057	-112.75056237680528	902.3953674622304	-233.77695730161275	-181.92517901166357	899.6718890556461	-82.58927072965827	-269.4957383233658	906.6962043250244	-77.86705396838813	35.88980273158919	739.3580956287021	-152.4579127007674	17.851755217818678	725.9889292051625	-201.08852534113097	-468.94923569176285	742.3079241004505	-331.7712233236199	-418.0393065882208	737.0838226653638	-347.15417513969516	-390.31139851382113	472.6246914957742	-119.31440324828323	25.569723460390176	814.235208389474	-146.9618085825089	-448.69440354548533	75.15542550958831	-73.79637936764186	-90.22451073707593	63.09394584792077	-140.21849975255597	-123.77590250647928	465.7298652666197	-115.67688494761127	-230.31572579738977	1167.8479226625118	-263.3138919190252	-364.18295080615684	65.443679079978	-94.2479766379955	-178.21799735604046	461.02618115905784	-176.87867950728517	-485.8405897411973	1056.0357476627237	-218.99801133558802	-203.19507577463477	948.0826442052368	-271.54696347377046	-4.9551513287643125	1031.2125216922498	-156.78920737304009	-17.85119177617636	810.8729664554031	-183.81138631117255	-482.0969635666448	822.2801661944861	-323.0001733495731	-484.10881784557296	1060.6366984083131	-293.9640237595135	-301.37081011140043	470.30289722904774	-152.53906028911203	-60.602936136635456	1027.7922033760633	-103.51230588251136	-23.440289150011314	72.8645250965646	-87.20384040776545	-419.85624113346864	828.2934129193104	-323.6697425087302	-211.2309087848	1387.8053954450943	-293.3012246260953	-262.4807932166391	1181.447475202928	-68.75216348542072	-166.80404537761933	1479.7117417579502	-306.41536498107877	-222.0473944789932	1481.8620154097182	-335.5771758817446	-306.5092263741845	1493.6718450873223	-276.3941863641509	-170.85269592706535	1485.9275075144571	-201.6796097603403	-283.31848220903345	1398.2076570850982	-127.41547467702603	-277.4794487742464	1281.3461746123453	-72.367781576852	-228.7762014300613	1031.0914152228063	-77.88709581910518	-259.33419272245106	1171.6338366090044	-81.43967723143162	-69.58270620364334	1150.5257836427752	-181.62396640919914	-15.515139756358286	1135.040675897889	-111.5389632579813	-443.8319003600101	1262.1313693366621	-277.14381765040633	-485.31446362454795	1124.0082351535566	-213.98791990399062	-164.10227114689238	982.7499901130454	-225.43130934717615	-213.48136051119317	1080.587161243859	-290.8929919415312	-300.4315847958008	1204.59766955058	-280.73934567534076	-286.6238323131508	1000.8963147316833	-249.3169985529686	-158.29882150948325	1264.7195903844167	-267.12625731407513	-164.99806830219273	639.608695458121	-182.69565742192603	-102.16511943845232	614.8004973486308	-109.88020152216959	-292.2983918285911	582.597744108297	-148.1815526587615	-433.36028911198474	755.7764897750064	-164.1287661763784	-449.5250423720842	186.28515838416894	-99.19637460512962	-311.6512089478095	317.3119629592462	-113.1034568127595	-69.2592306936973	317.44198435178305	-97.37034116152735	-142.30802900765676	258.2648730847051	-152.6038954083241	49.3409732860968	30.179827117865848	-273.72643052497205	62.72551574020635	31.37618318986009	-247.1029382637141	-14.54997104764516	39.27171380038051	-232.20975702821923	11.281120007827425	46.44335033505528	-202.1019598484194	34.52286153499362	33.17405380636629	-177.4556567978324	-425.0698095012634	10.15034705305246	-249.42132475550758	-452.6388867747955	34.9375147487573	-149.94120352675438	-439.9516022482887	9.529468617568199	-243.2818632307334	-406.84550628489006	10.860704505901461	-256.3494979774963	-419.06202334527376	23.72092063051648	-200.82070084667498	-392.93297566192865	34.80066407697053	-169.3090961311131	
68	2.2666666666666666	-228.39309035152877	1625.3501956903233	-243.02570505190002	-195.97921689603362	1452.1283793793277	-320.5876541463897	-269.7512032651768	1337.0707212923421	-178.39334321601785	-55.509326956624776	1277.153322436185	-134.24732230608996	-4.574180528887091	1017.8759244901214	-103.40324797491641	15.882430084114347	800.4963420579587	-156.79970329722002	-426.6328802389823	1313.7689777520886	-249.27631770298206	-483.4250488223901	1047.6370906170864	-255.1559304323645	-449.9403789016011	814.6460417387524	-315.31187786069637	-152.59489532501112	845.1442015511965	-198.77188112808835	-154.67656898869095	472.5545865686228	-143.53811005490917	-71.80148705742812	80.16822290673709	-112.09249901824064	-326.2347080883471	856.854370694373	-172.7583408076661	-339.4613615661359	476.2617928667403	-122.66742398717588	-393.441483072193	82.13314393191278	-81.98910763652223	-71.1438860063722	21.62164323756893	-99.41089872424509	-406.95068205544396	16.34189716641062	-56.09571619825669	34.15766176038737	34.44182307638201	-301.41787496918096	64.75395390296754	31.63031146988196	-216.41196022383667	-378.087115039048	24.09840859543605	-270.77313451858186	-458.7146330226366	10.089897078766251	-225.0281825813983	-365.6197396490757	923.6130479406334	-201.23871489977867	-111.15369821602597	903.143275127334	-236.35792562091558	-176.29295949102845	899.5578533620716	-83.40602833453856	-263.73400355067326	906.2212593342349	-76.34160840663307	40.677393992624864	731.9416600806686	-148.60500267846118	15.042293554092613	722.2564007350722	-194.62760181911526	-469.20569481814016	741.7471538313494	-326.6792234281551	-417.95385154374094	736.3912930956038	-340.83233758946824	-389.26641417836294	472.1958565441671	-119.7264400243235	36.499151723501335	806.9394428598711	-138.54676815266308	-449.34581452918326	74.68231574105738	-76.36917606705826	-94.3067175145798	63.13240005807735	-139.99488790219263	-122.0559758920696	466.28385195333425	-116.42913075187069	-228.7945381325717	1166.1293734138262	-265.2749844310833	-364.38058159353955	64.87391747980209	-94.79405081490812	-179.02026366696478	461.881832030181	-175.31391768374274	-489.0924530990653	1057.2996575863597	-219.44393801203324	-198.16147451785446	946.7412991095879	-270.8048132657345	19.665177949289987	1025.6742113346836	-135.12100728745133	-11.83175300021196	808.2258180824896	-168.82944995198739	-482.7025243362006	821.8208814790237	-319.51072951152696	-485.74186230901796	1060.6228851899064	-294.42260497843534	-299.54878448638453	469.79585796022434	-150.78579865769882	-28.65202825328388	1022.8027470288495	-75.08764122026362	-24.265368420402417	72.51664347191755	-91.28866684260171	-420.47426539332827	827.9664949528707	-318.8860599948385	-211.12288299138527	1387.3617921400223	-296.4072409208115	-262.3380890677734	1181.4513083377358	-71.07438179736053	-166.80957295659348	1479.2905681464756	-309.7464334655224	-221.93146532597947	1481.2065705193745	-339.15337870376203	-306.6674322976635	1493.125960528705	-280.38567145288897	-171.31790354876094	1485.9709287300734	-205.058069858985	-286.2399035287821	1397.166083306827	-132.36393178432124	-278.8888093016557	1281.0517237068286	-75.93374641178187	-226.21154594666476	1031.5531157449343	-78.27132618486448	-258.9609244874672	1171.5436823816424	-83.62887539483604	-54.461330168229296	1139.68759860732	-158.25861519508453	8.69292996614776	1131.4949257542567	-94.85973895495987	-444.180442101042	1262.0507628405137	-280.1149048249022	-488.11565618993427	1125.3407186883367	-215.55848405524304	-159.89809120527426	982.5510181569301	-224.86677542449507	-210.42038063369492	1078.8352809278263	-291.743358942104	-299.37548351235097	1201.561076645209	-283.5328203777519	-282.5450006060409	998.4783812032816	-249.67409122947015	-158.293162409893	1264.0796963529463	-269.78928367614196	-163.97742330423202	640.2595138277543	-182.7593028294783	-98.49504730837752	615.1180278399669	-112.43518967825575	-290.29862191094503	582.043900800375	-145.6632355527217	-430.4874596451981	755.6731605043865	-164.20023596320408	-449.391417408071	185.86003266391475	-101.57196218087377	-311.0196611261141	316.69272021055167	-111.90101482672422	-67.72337189254229	317.5496372343636	-100.83333129592353	-144.7393383396983	258.82346976980386	-150.91906893548028	47.178717603081026	28.041575786796535	-274.3387210981669	60.36127229627741	30.930322615709528	-247.74430479960057	-17.25560178094608	36.16430360673028	-233.4658801420817	8.09164383081265	45.692996630181504	-203.60154964760096	31.743727147166418	34.47650178966638	-178.33373945494256	-427.349235684339	11.611577431860267	-250.93416999034136	-453.5364992111735	36.60984306855602	-151.13403888867526	-442.2101044592598	11.445243581481634	-244.71539635593015	-409.14904057219286	11.761201182789973	-257.95983225378563	-420.62869318824966	24.63385516697658	-202.27690745746744	-393.9739944001292	34.614092707939704	-170.83822156622662	
